M48
; DRILL file KiCad 10.0.5 date 2026-09-17T15:03:23
; FORMAT={-:-/ absolute / metric / decimal}
; #@! TF.CreationDate,2026-09-17T15:03:23+02:00
; #@! TF.GenerationSoftware,Kicad,Pcbnew,10.0.5
; #@! TF.FileFunction,Plated,1,2,PTH
FMAT,2
METRIC
; #@! TA.AperFunction,Plated,PTH,ComponentDrill
T1C1.000
%
G90
G05
T1
X132.425Y-94.934
X136.281Y-91.703
X137.175Y-113.34
X139.099Y-111.69
X141.0Y-110.0
X142.921Y-108.503
X153.645Y-119.891
X155.554Y-118.253
X156.166Y-100.727
X157.464Y-116.616
X158.03Y-99.039
X159.388Y-115.071
X159.894Y-97.351
X164.46Y-87.663
X166.314Y-85.948
X168.138Y-84.232
X170.75Y-95.325
X172.5Y-97.15
X174.233Y-98.963
X176.0Y-100.75
X176.226Y-90.259
X177.996Y-92.073
X178.75Y-68.225
X179.738Y-93.86
X181.2Y-69.2
X181.481Y-95.647
M30
