%TF.GenerationSoftware,KiCad,Pcbnew,10.0.5*%
%TF.CreationDate,2026-09-17T15:02:28+02:00*%
%TF.ProjectId,circuit,63697263-7569-4742-9e6b-696361645f70,rev?*%
%TF.SameCoordinates,Original*%
%TF.FileFunction,Profile,NP*%
%FSLAX46Y46*%
G04 Gerber Fmt 4.6, Leading zero omitted, Abs format (unit mm)*
G04 Created by KiCad (PCBNEW 10.0.5) date 2026-09-17 15:02:28*
%MOMM*%
%LPD*%
G01*
G04 APERTURE LIST*
%TA.AperFunction,Profile*%
%ADD10C,0.100000*%
%TD*%
G04 APERTURE END LIST*
D10*
X174531068Y-65506976D02*
X176660219Y-65734430D01*
X178725783Y-66170968D01*
X180716961Y-66805108D01*
X182622922Y-67625368D01*
X184432869Y-68620270D01*
X186135984Y-69778340D01*
X187721452Y-71088088D01*
X189178461Y-72538036D01*
X190496205Y-74116704D01*
X191663860Y-75812612D01*
X192670617Y-77614276D01*
X193505674Y-79510223D01*
X194158202Y-81488967D01*
X194617395Y-83539028D01*
X194872441Y-85648924D01*
X194912524Y-87807178D01*
X194726842Y-90002310D01*
X194304564Y-92222835D01*
X193634891Y-94457279D01*
X192707006Y-96694151D01*
X191510098Y-98921982D01*
X190033352Y-101129283D01*
X188265954Y-103304578D01*
X186197093Y-105436391D01*
X157319679Y-132631517D01*
X157181130Y-132757209D01*
X157038897Y-132876215D01*
X156893188Y-132988536D01*
X156744200Y-133094178D01*
X156592138Y-133193157D01*
X156437199Y-133285484D01*
X156279585Y-133371172D01*
X156119500Y-133450219D01*
X155957144Y-133522652D01*
X155792715Y-133588470D01*
X155626411Y-133647693D01*
X155458440Y-133700324D01*
X155289005Y-133746376D01*
X155118299Y-133785859D01*
X154946530Y-133818786D01*
X154773889Y-133845160D01*
X154718945Y-133851182D01*
X154664233Y-133854640D01*
X154609822Y-133855590D01*
X154555774Y-133854069D01*
X154502145Y-133850130D01*
X154449001Y-133843817D01*
X154396405Y-133835171D01*
X154344420Y-133824244D01*
X154293100Y-133811075D01*
X154242521Y-133795718D01*
X154143798Y-133758606D01*
X154048746Y-133713273D01*
X153957868Y-133660081D01*
X153871655Y-133599396D01*
X153790603Y-133531591D01*
X153715204Y-133457021D01*
X153645958Y-133376057D01*
X153583361Y-133289059D01*
X153554711Y-133243417D01*
X153527911Y-133196400D01*
X153503016Y-133148065D01*
X153480093Y-133098448D01*
X153459203Y-133047596D01*
X153440414Y-132995554D01*
X149649707Y-121747273D01*
X149622923Y-121657019D01*
X149603157Y-121565938D01*
X149590302Y-121474402D01*
X149584268Y-121382767D01*
X149584957Y-121291383D01*
X149592270Y-121200615D01*
X149606109Y-121110822D01*
X149626376Y-121022354D01*
X149652983Y-120935576D01*
X149685823Y-120850834D01*
X149724811Y-120768503D01*
X149769830Y-120688925D01*
X149820805Y-120612471D01*
X149877632Y-120539485D01*
X149940205Y-120470337D01*
X150008432Y-120405379D01*
X158399185Y-112997366D01*
X158448711Y-112951252D01*
X158495173Y-112903146D01*
X158538583Y-112853179D01*
X158578929Y-112801480D01*
X158616209Y-112748170D01*
X158650424Y-112693377D01*
X158681561Y-112637229D01*
X158709625Y-112579853D01*
X158734607Y-112521377D01*
X158756508Y-112461924D01*
X158775323Y-112401621D01*
X158791050Y-112340598D01*
X158803682Y-112278976D01*
X158813216Y-112216890D01*
X158819653Y-112154455D01*
X158822982Y-112091810D01*
X158823208Y-112029074D01*
X158820317Y-111966380D01*
X158814313Y-111903842D01*
X158805192Y-111841602D01*
X158792952Y-111779779D01*
X158777586Y-111718499D01*
X158759091Y-111657890D01*
X158737464Y-111598079D01*
X158712706Y-111539195D01*
X158684805Y-111481356D01*
X158653760Y-111424698D01*
X158619570Y-111369346D01*
X158582231Y-111315427D01*
X158541742Y-111263061D01*
X158498095Y-111212381D01*
X158451288Y-111163514D01*
X149384688Y-102192924D01*
X149338073Y-102144355D01*
X149294592Y-102093975D01*
X149254226Y-102041928D01*
X149216992Y-101988328D01*
X149182874Y-101933307D01*
X149151872Y-101876985D01*
X149123990Y-101819495D01*
X149099212Y-101760951D01*
X149077540Y-101701486D01*
X149058974Y-101641218D01*
X149043510Y-101580277D01*
X149031145Y-101518786D01*
X149021874Y-101456867D01*
X149015696Y-101394654D01*
X149012604Y-101332263D01*
X149012600Y-101269820D01*
X149015678Y-101207453D01*
X149021837Y-101145285D01*
X149031068Y-101083443D01*
X149043374Y-101022048D01*
X149058754Y-100961230D01*
X149077198Y-100901108D01*
X149098707Y-100841809D01*
X149123279Y-100783462D01*
X149150906Y-100726189D01*
X149181586Y-100670112D01*
X149215322Y-100615354D01*
X149252103Y-100562053D01*
X149291930Y-100510320D01*
X149334802Y-100460284D01*
X149380715Y-100412068D01*
X149429660Y-100365806D01*
X158395357Y-92324905D01*
X158447711Y-92275252D01*
X158496537Y-92223445D01*
X158541844Y-92169618D01*
X158583637Y-92113944D01*
X158621912Y-92056554D01*
X158656681Y-91997602D01*
X158687943Y-91937245D01*
X158715707Y-91875625D01*
X158739975Y-91812908D01*
X158760747Y-91749228D01*
X158778035Y-91684745D01*
X158791839Y-91619602D01*
X158802164Y-91553954D01*
X158809011Y-91487956D01*
X158812391Y-91421750D01*
X158812301Y-91355490D01*
X158808745Y-91289330D01*
X158801734Y-91223412D01*
X158791269Y-91157891D01*
X158777357Y-91092920D01*
X158759990Y-91028648D01*
X158739183Y-90965228D01*
X158714941Y-90902800D01*
X158687264Y-90841525D01*
X158656160Y-90781551D01*
X158621628Y-90723025D01*
X158583678Y-90666104D01*
X158542308Y-90610928D01*
X158497518Y-90557661D01*
X158449331Y-90506442D01*
X158397731Y-90457426D01*
X158342736Y-90410769D01*
X148792682Y-82754739D01*
X148740607Y-82710652D01*
X148691538Y-82664417D01*
X148645491Y-82616145D01*
X148602466Y-82565979D01*
X148562477Y-82514036D01*
X148525537Y-82460457D01*
X148491650Y-82405369D01*
X148460828Y-82348891D01*
X148433072Y-82291166D01*
X148408401Y-82232311D01*
X148386821Y-82172464D01*
X148368344Y-82111752D01*
X148352975Y-82050297D01*
X148340727Y-81988241D01*
X148331601Y-81925698D01*
X148325618Y-81862809D01*
X148322777Y-81799702D01*
X148323094Y-81736501D01*
X148326573Y-81673334D01*
X148333226Y-81610341D01*
X148343065Y-81547634D01*
X148356095Y-81485360D01*
X148372323Y-81423641D01*
X148391761Y-81362602D01*
X148414429Y-81302375D01*
X148440316Y-81243093D01*
X148469442Y-81184879D01*
X148501819Y-81127863D01*
X148537448Y-81072175D01*
X148576347Y-81017952D01*
X148618520Y-80965312D01*
X148663977Y-80914390D01*
X156421244Y-72675127D01*
X156431536Y-72664322D01*
X156441967Y-72653622D01*
X156452514Y-72643033D01*
X156463168Y-72632565D01*
X156473909Y-72622218D01*
X156484725Y-72612015D01*
X156495600Y-72601941D01*
X156506518Y-72592025D01*
X158755050Y-70733507D01*
X161026503Y-69175924D01*
X163310070Y-67907783D01*
X165594925Y-66917612D01*
X167870270Y-66193921D01*
X170125285Y-65725241D01*
X172349152Y-65500087D01*
X174531068Y-65506976D01*
X131698060Y-65297826D02*
X133822269Y-65514813D01*
X135957410Y-65955480D01*
X138092238Y-66629959D01*
X140215529Y-67548347D01*
X142316046Y-68720771D01*
X144382555Y-70157338D01*
X146403827Y-71868173D01*
X146449782Y-71913062D01*
X146492937Y-71959746D01*
X146533286Y-72008103D01*
X146570824Y-72058028D01*
X146605547Y-72109401D01*
X146637450Y-72162110D01*
X146666532Y-72216045D01*
X146692774Y-72271086D01*
X146716184Y-72327127D01*
X146736756Y-72384051D01*
X146754481Y-72441741D01*
X146769362Y-72500087D01*
X146781382Y-72558974D01*
X146790546Y-72618298D01*
X146796847Y-72677928D01*
X146800273Y-72737772D01*
X146800834Y-72797695D01*
X146798514Y-72857598D01*
X146793310Y-72917368D01*
X146785223Y-72976878D01*
X146774238Y-73036028D01*
X146760353Y-73094702D01*
X146743573Y-73152783D01*
X146723878Y-73210155D01*
X146701282Y-73266714D01*
X146675760Y-73322339D01*
X146647319Y-73376923D01*
X146615952Y-73430347D01*
X146581654Y-73482493D01*
X146544422Y-73533258D01*
X146504239Y-73582528D01*
X146461124Y-73630185D01*
X139988944Y-80425888D01*
X139946887Y-80472452D01*
X139907852Y-80520616D01*
X139871837Y-80570267D01*
X139838826Y-80621271D01*
X139808812Y-80673522D01*
X139781792Y-80726892D01*
X139757752Y-80781259D01*
X139736695Y-80836510D01*
X139718598Y-80892529D01*
X139703463Y-80949191D01*
X139691278Y-81006366D01*
X139682036Y-81063953D01*
X139675730Y-81121820D01*
X139672352Y-81179851D01*
X139671890Y-81237925D01*
X139674339Y-81295922D01*
X139679694Y-81353724D01*
X139687936Y-81411214D01*
X139699073Y-81468264D01*
X139713080Y-81524760D01*
X139729962Y-81580581D01*
X139749710Y-81635610D01*
X139772306Y-81689724D01*
X139797750Y-81742808D01*
X139826035Y-81794731D01*
X139857146Y-81845383D01*
X139891082Y-81894643D01*
X139927829Y-81942391D01*
X139967385Y-81988509D01*
X140009737Y-82032875D01*
X140054876Y-82075363D01*
X140102797Y-82115861D01*
X149766693Y-89856391D01*
X149820065Y-89902075D01*
X149870138Y-89950046D01*
X149916908Y-90000163D01*
X149960373Y-90052278D01*
X150000518Y-90106242D01*
X150037352Y-90161909D01*
X150070861Y-90219135D01*
X150101039Y-90277768D01*
X150127886Y-90337672D01*
X150151400Y-90398684D01*
X150171569Y-90460670D01*
X150188394Y-90523483D01*
X150201865Y-90586968D01*
X150211982Y-90650987D01*
X150218735Y-90715385D01*
X150222121Y-90780024D01*
X150222141Y-90844754D01*
X150218782Y-90909427D01*
X150212040Y-90973900D01*
X150201917Y-91038015D01*
X150188402Y-91101639D01*
X150171493Y-91164619D01*
X150151187Y-91226813D01*
X150127469Y-91288066D01*
X150100351Y-91348240D01*
X150069811Y-91407185D01*
X150035857Y-91464748D01*
X149998471Y-91520790D01*
X149957662Y-91575164D01*
X149913419Y-91627721D01*
X149865740Y-91678316D01*
X149814618Y-91726801D01*
X140804866Y-99806731D01*
X140756814Y-99852168D01*
X140711740Y-99899521D01*
X140669648Y-99948664D01*
X140630543Y-99999476D01*
X140594425Y-100051825D01*
X140561298Y-100105604D01*
X140531172Y-100160682D01*
X140504040Y-100216940D01*
X140479909Y-100274249D01*
X140458786Y-100332490D01*
X140440670Y-100391542D01*
X140425570Y-100451287D01*
X140413481Y-100511584D01*
X140404408Y-100572331D01*
X140398354Y-100633398D01*
X140395330Y-100694657D01*
X140395331Y-100755993D01*
X140398361Y-100817282D01*
X140404432Y-100878395D01*
X140413535Y-100939215D01*
X140425677Y-100999619D01*
X140440865Y-101059485D01*
X140459094Y-101118685D01*
X140480377Y-101177108D01*
X140504714Y-101234621D01*
X140532107Y-101291107D01*
X140562561Y-101346435D01*
X140596075Y-101400488D01*
X140632653Y-101453150D01*
X140672304Y-101504291D01*
X140715024Y-101553786D01*
X140760823Y-101601520D01*
X149860822Y-110605420D01*
X149906841Y-110653415D01*
X149949758Y-110703185D01*
X149989562Y-110754611D01*
X150026268Y-110807571D01*
X150059878Y-110861941D01*
X150090397Y-110917589D01*
X150117821Y-110974398D01*
X150142158Y-111032235D01*
X150163413Y-111090986D01*
X150181588Y-111150518D01*
X150196688Y-111210714D01*
X150208713Y-111271444D01*
X150217676Y-111332579D01*
X150223566Y-111394009D01*
X150226398Y-111455605D01*
X150226171Y-111517229D01*
X150222894Y-111578770D01*
X150216563Y-111640104D01*
X150207186Y-111701099D01*
X150194761Y-111761637D01*
X150179307Y-111821586D01*
X150160805Y-111880829D01*
X150139277Y-111939244D01*
X150114721Y-111996699D01*
X150087136Y-112053071D01*
X150056533Y-112108237D01*
X150022909Y-112162071D01*
X149986272Y-112214451D01*
X149946621Y-112265252D01*
X149903970Y-112314351D01*
X149858308Y-112361622D01*
X149809650Y-112406936D01*
X141390095Y-119840217D01*
X141355932Y-119871571D01*
X141323138Y-119904004D01*
X141291731Y-119937462D01*
X141261722Y-119971911D01*
X141205948Y-120043593D01*
X141155906Y-120118696D01*
X141111695Y-120196865D01*
X141073409Y-120277754D01*
X141041142Y-120361013D01*
X141014999Y-120446286D01*
X140995067Y-120533221D01*
X140981447Y-120621473D01*
X140974234Y-120710675D01*
X140973528Y-120800498D01*
X140979417Y-120890577D01*
X140992007Y-120980561D01*
X141000838Y-121025408D01*
X141011382Y-121070102D01*
X141023647Y-121114595D01*
X141037646Y-121158848D01*
X144233468Y-130641628D01*
X144266747Y-130756293D01*
X144288985Y-130868923D01*
X144300662Y-130979231D01*
X144302259Y-131086932D01*
X144294251Y-131191726D01*
X144277126Y-131293335D01*
X144251359Y-131391459D01*
X144217429Y-131485816D01*
X144175816Y-131576112D01*
X144126999Y-131662062D01*
X144071458Y-131743375D01*
X144009679Y-131819759D01*
X143942133Y-131890934D01*
X143869303Y-131956595D01*
X143791672Y-132016465D01*
X143709719Y-132070251D01*
X143623918Y-132117666D01*
X143534756Y-132158414D01*
X143442706Y-132192216D01*
X143348254Y-132218774D01*
X143251872Y-132237802D01*
X143154051Y-132249006D01*
X143055265Y-132252106D01*
X142955989Y-132246805D01*
X142856713Y-132232817D01*
X142757907Y-132209852D01*
X142660056Y-132177623D01*
X142563638Y-132135832D01*
X142469133Y-132084203D01*
X142377020Y-132022433D01*
X142287783Y-131950242D01*
X142201900Y-131867337D01*
X142201579Y-131866995D01*
X115003250Y-102986188D01*
X113203273Y-100898263D01*
X111695071Y-98781148D01*
X110467407Y-96644976D01*
X109509050Y-94499846D01*
X108808764Y-92355887D01*
X108355316Y-90223206D01*
X108137477Y-88111918D01*
X108143999Y-86032140D01*
X108363664Y-83993981D01*
X108785232Y-82007562D01*
X109397467Y-80082998D01*
X110189138Y-78230400D01*
X111149010Y-76459886D01*
X112265850Y-74781567D01*
X113528424Y-73205554D01*
X114925496Y-71741974D01*
X116445835Y-70400934D01*
X118078204Y-69192548D01*
X119811376Y-68126927D01*
X121634108Y-67214199D01*
X123535174Y-66464467D01*
X125503335Y-65887849D01*
X127527358Y-65494461D01*
X129596015Y-65294411D01*
X131698060Y-65297826D01*
M02*
